<mxfile host="app.diagrams.net" agent="Mozilla/5.0 (X11; Linux x86_64) AppleWebKit/537.36 (KHTML, like Gecko) Chrome/140.0.0.0 Safari/537.36" version="28.2.8">
  <diagram name="Page-1" id="pVUi8o6gmYxNO-Kwj-BF">
    <mxGraphModel dx="1360" dy="913" grid="1" gridSize="10" guides="1" tooltips="1" connect="1" arrows="1" fold="1" page="1" pageScale="1" pageWidth="850" pageHeight="1100" math="0" shadow="0">
      <root>
        <mxCell id="0" />
        <mxCell id="1" parent="0" />
        <mxCell id="0CFdpE0hCqeCpiIAvZBW-14" style="edgeStyle=orthogonalEdgeStyle;rounded=0;orthogonalLoop=1;jettySize=auto;html=1;entryX=0;entryY=0.25;entryDx=0;entryDy=0;strokeWidth=4;" edge="1" parent="1" source="0CFdpE0hCqeCpiIAvZBW-2" target="0CFdpE0hCqeCpiIAvZBW-3">
          <mxGeometry relative="1" as="geometry" />
        </mxCell>
        <mxCell id="0CFdpE0hCqeCpiIAvZBW-2" value="" style="shape=image;verticalLabelPosition=bottom;labelBackgroundColor=default;verticalAlign=top;aspect=fixed;imageAspect=0;image=data:image/png,iVBORw0KGgoAAAANSUhEUgAAAgAAAAIACAMAAADDpiTIAAAAA3NCSVQICAjb4U/gAAAACXBIWXMAAHovAAB6LwEf/fvJAAAAGXRFWHRTb2Z0d2FyZQB3d3cuaW5rc2NhcGUub3Jnm+48GgAAAwBQTFRF////AAAAAAAAAAAAAAAAAAAAAAAAAAAAAAAAAAAAAAAAAAAAAAAAAAAAAAAAAAAAAAAAAAAAAAAAAAAAAAAAAAAAAAAAAAAAAAAAAAAAAAAAAAAAAAAAAAAAAAAAAAAAAAAAAAAAAAAAAAAAAAAAAAAAAAAAAAAAAAAAAAAAAAAAAAAAAAAAAAAAAAAAAAAAAAAAAAAAAAAAAAAAAAAAAAAAAAAAAAAAAAAAAAAAAAAAAAAAAAAAAAAAAAAAAAAAAAAAAAAAAAAAAAAAAAAAAAAAAAAAAAAAAAAAAAAAAAAAAAAAAAAAAAAAAAAAAAAAAAAAAAAAAAAAAAAAAAAAAAAAAAAAAAAAAAAAAAAAAAAAAAAAAAAAAAAAAAAAAAAAAAAAAAAAAAAAAAAAAAAAAAAAAAAAAAAAAAAAAAAAAAAAAAAAAAAAAAAAAAAAAAAAAAAAAAAAAAAAAAAAAAAAAAAAAAAAAAAAAAAAAAAAAAAAAAAAAAAAAAAAAAAAAAAAAAAAAAAAAAAAAAAAAAAAAAAAAAAAAAAAAAAAAAAAAAAAAAAAAAAAAAAAAAAAAAAAAAAAAAAAAAAAAAAAAAAAAAAAAAAAAAAAAAAAAAAAAAAAAAAAAAAAAAAAAAAAAAAAAAAAAAAAAAAAAAAAAAAAAAAAAAAAAAAAAAAAAAAAAAAAAAAAAAAAAAAAAAAAAAAAAAAAAAAAAAAAAAAAAAAAAAAAAAAAAAAAAAAAAAAAAAAAAAAAAAAAAAAAAAAAAAAAAAAAAAAAAAAAAAAAAAAAAAAAAAAAAAAAAAAAAAAAAAAAAAAAAAAAAAAAAAAAAAAAAAAAAAAAAAAAAAAAAAAAAAAAAAAAAAAAAAAAAAAAAAAAAAAAAAAAAAAAAAAAAAAAAAAAAAAAAAAAAAAAAAAAAAAAAAAAAAAAAAAAAAAAAAAAAAAAAAAAAAAAAAAAAAAAAAAAAAAAAAAAAAAAAAAAAAAAAAAAAAAAAAAAAAAAAAAAAAAAAAAAAAAAAAAAAAAACyO34QAAAP90Uk5TAAECAwQFBgcICQoLDA0ODxAREhMUFRYXGBkaGxwdHh8gISIjJCUmJygpKissLS4vMDEyMzQ1Njc4OTo7PD0+P0BBQkNERUZHSElKS0xNTk9QUVJTVFVWV1hZWltcXV5fYGFiY2RlZmdoaWprbG1ub3BxcnN0dXZ3eHl6e3x9fn+AgYKDhIWGh4iJiouMjY6PkJGSk5SVlpeYmZqbnJ2en6ChoqOkpaanqKmqq6ytrq+wsbKztLW2t7i5uru8vb6/wMHCw8TFxsfIycrLzM3Oz9DR0tPU1dbX2Nna29zd3t/g4eLj5OXm5+jp6uvs7e7v8PHy8/T19vf4+fr7/P3+6wjZNQAAG+JJREFUeNrt3XmgDlUfB/Dz3OduuLi49rJGocguV0VaLK1a5BUphSxRedVLi7WUpFcLikSKZK+klCSkq5AosmW5dq4t3HXeP+ot55zZzsyZeeZ5zvf3531mzvq5zzNz5pwzhMiKyn0+WL7lhKZ45OzJmNOzAlEuSo/YqCH+HwVr2qvV/UWHnkav0/FNI4X6v9thdDj/W9BTle4Pv4re1o0345Xo/+JL0NUGMVsFAUVw8WccHyogYCa62UxAONb7/1F0smnMinEBzXPQx+YxM7YFrEMPW8UHsSzgFvSvDQExfCWYge61ER/FrIC26Fy1BXyBvlVaQKHz6FqlBdyEjlVbwMt8PfPWzlI4flZMAP8U4EgTonJMUOs7II2v5GNK9z/5Uq1fgQZcFTOT1QawW63rgBu5Gk5Uu//JObWuBDtzFXxScQDn1boX6M/V724AUEnASK56jQBAJQETudqVAgCVBLzLVS4ZAFQSAACOAMSOAABwBiBmBACAQwCxIgAAnAKIEQEAYAlgT3YsCwAASwALbo1lAQBgDYDEsgAAsAEglgUAgB0AMSwAAGwBiF0BAGAPQMwKAACbAGJVAADYBRCjAgDANoDYFAAA9gHEpAAAEAAQiwIAQARADAoAACEAsScAAMQAxJwAABAEEGsCAEAUQIwJAABhALElAADEAcSUAABwACCWBACAEwAxJAAAHAGIHQEA4AxAzAgAAIcAYkUAADgFECMCAMAxgNgQAADOAcSEAABwASAWBACAGwAxIAAAXAGIfgEA4A5A1AsAAJcAol0AALgFEOUCAMA1gOgWAADuAUS1AACQACCaBQCADABRLAAApACIXgEAIAdA1AoAAEkAolUAAMgCEKUCAEAagOgUAADyAESlAACQCCAaBQCATABRKAAApAKIPgEAIBdA1AkAAMkAok0AAMgGEGUCAEA6gOgSAADyAUSVAADwAEA0CQAALwBEkQAA8ARA9AgAAG8ARI0AAPAIQLQIAACvAESJAADwDEB0CAAA7wBEhQAA8BBANAgAAC8BRIEAAPAUQPAFAIC3AAIvAAA8BhB0AQDgNYCACwAAzwEEWwAAeA/AWMDseABQAYCxgA/jAUAFACYCwgCgAgBjAbPCAKACgMAKAACfABgLmBkGABUABFQAAPgGwFjAB2EACDCAT1NlRde84AkAAEsAfsT7YQBQGoA2HQDUBqA9BgBqA8hNBwClAWj70gBAaQDaUABQG0BmPAAoDUDroCaA+IubVIxYb5dqWr1QYAAsUg5Ame4frT2Qr2nagU/ui0Ddr5+zS9M0LWvzwl4XBwFAploAqg9alX9BtgvL+lzzIm8WXJD9T6OqRxyAVlIhABWnsOPiR2v7WvGS29gb8SlVIg3gGmUApI4+y1f/B1+vgt/nC5AzqUJkAfRSBcDtx3Tr/6yP9b5dtwRHbowogKcUATCkQL/+55P8q/cG/SLkD4+LIIDhSgAoNNOwARr5Vu1CuUZl+DIncgBeVgFA6lrjBujpW7WbaUGMNxUAEF5i0gDjfav2g2b9MGOi9/HagLa1uIynKgBgXDCeibcyK8Ysf8qQzGX8buwDeDAg98HFC8zK0QcAPIors83aPb+of/XeZlaQ7EYA4E0sNf0CmOJjvfublmRHIgB4ETeYtvrvPn4BkNBy07L0BgAvGn2dWZvntPS14lVPmM7PSgIA+dHZrMk31ve55pW/MitOPwCQH6uM23v7yETfqx7qsynPsED7EwBAdpTN1+/7Dwe1TiWRiSLpj04zUHAdAMiOHnrtPKcciXQUHac3KDAWAGTHYr6VszqTIMQ1O/mibQUA2f9o/CBQfjoJRlTM4gVcAgByoynfxmNIUKIbX7juACA3+Dk4WwK0BOEzrnTPAYDc6M3lNDI4/a8zRjEJAOTGCC6nOwIEoIb/yzRUAzCZy6lSgACEuMvAHwBAbsznHrqSIMX3bPF2AYDcWMBNAg4UgDXcw0kAAAAAAAAAAAAAAAAAAAAAAAAAAAAAAAAAAAAAAAAAAAAAAAAAAAAAAAAAAAAAiBSAuBLxAKAqgDI9Fu/P1fIPrxhYHQDUAxB69I9/lpiMTQYAxQBU/ZpK7dfGAKAUgIdOM8nljQgBgDoA9Hab6QsAygAovlcHwB81AEAVAO/qbuqwKg4A1ABwq8HGLoMAQA0AawwAHI8HABUAlDXc6PU6AFABgPF+cy8BgAoAhniw0TcARBGACYYAlgOACgCmGAJYDQAqABhhCGA+AKgAoKcHb90BgCgCUNsQwL0AEFgAi7ihe+dpbTd61Ucxx0lyO1nvAQC5wW3Cs915WoMMALzjPMm5bFrnAEBu7GMz+tp5WuHv9V/z4GLX8f9yqaUCgMwIc7uyT3eRWq1zegDaukjx31xqtQBAZlzJZTTKTXIDdfp/spsEO0m8oAQAnRjKZeTqZelxH3HprSnmJsGrfX9/pGIA1nMZtXOXYJfj9A3Af8KukqvKle9kIgDIC51b9ytcJlnh0wsSW1/XZWqJBX7vZawWgPn8DL7CrhO9a96fKwNylz7i/h1Pv3Il3BQGAFnRnP8CmC0j3UJ1b+jUrkFxby5StAcBQFIkZvCt24EEKy7li5iZBgByQuf57cnkgAEgOu81XZ4AADJigM5N+/Sg9b/OUJCmTQQACfG43hsj2wUOwMV6U03fiAcAt7//uvN3jiUEDgD5Vq+gy0oBgKto9aPuc5sxwet/g8nGu/8VAgDH0XCx/nPbzKIBBBBaoV/YdW3jAMBBpF37yg6jmTsdSRDj8lyD4h6eckv5OACwHZd0ennZzvOacSwlwYwxJmXO3bv6ze71QgBgGcWnaBaRXTOgAFL2WhV9aSUAsIjWlo0YqFeG0nGXZdlPdgUA06h8yrINtxYKLADysWXpC64BALMr6S8tW3BfleD2P0n53rL8O1MAwDi6Wrbf0dokyFHyZ8sajAUA45hl1XqnGpFgR/kdVlX4BQCMY6dF4527lgQ9qmZa1CE/BQAMB38s2i73ZhL8qH3UohYtAMAoylh9AbSMAgDV9lvU4loAMIzdVpcAjQPf/xWsLgIKigGAYXwU5TcBhJTcZDmOgYtA43jY8iYqs2qg+79ohmUN3gAA44hbZdl+O8oHuP+Tl1kPZKUCgEnUPGvZgj8lBhfATMvSa20IAJjFbUcsm3BwYPu/nWXZz/UjAGBxKzjXqhHPVgnqD4DlKOCaywgAWEajvtM3nzFrxkUBBTDcrNDnd8wZ1EriarFYnxJWtOZt7xw2asxbA9n/NYxmMZ2Z26V2SelfNwpMCo1rbXBTsKtwEAF8rl/YbZ08WcWkyLTwO7bqNuqIAPb/nfoTQnt7tIRBlYUhhefoNeuhcPAAfKVX0IwKnl1xqrI0LKR7aXV94Pq/vN4KthnerWFVaHHoM7J3dPIk+uv1v5f3nAotD5+t83aXwA0H6ryHJiMZAORcB2zkGzdoU0Oq6Vz/VSAAICdae/btWu46SU8XdV5D0psAgKxYwuVzWkJGDRbs0zTt2FIZ40r8bOBtCQAgLerz/1913KaZMPTvxZzTXO8TlcDfA3QiACAvNkl/rBr+5sJV/G73c6rMj/8mA4DEGMVl9LDUH+2ZLlNL58o3lwCAxGgsezS4XrbUbec6cuXrAgAyIz5fcnVnMMn94C65J7iGqA0AUoObbP+Vu/S2sJsOuBtZGsc1REkAkBpr2Yx+c5VcUe4bpaGr9D6S904rANANbuX9aVfJNeMK3s1VeivZ5PYCgNxYIPdfrKXcF1DgtXEAAAAAAAAAAAAAAAAAAAAAAAAAAAAAAAAAAAAAAAAAAAAAAAAAAAAAAAAAAAAAAAAAAAAAAAAAAAAAAAAAAAAAAAAAAAAAAAAAAAC+AKgpef9hAIgyAKGTbHoVAUAlAGQ5k9wBAgBKAfgPk9w0AFALQOJPVGpHygCAWgBIvZwLU+tIAEAxAOSuY//sD/MUAQDlAJBy8/9Kau3lBACCDmC+F5vwXPnQhBXTHk2PJ/IB7AIAufGOJvfGXXJwr4z/EQDkxqhAvzqsmv+vtlMNQB8up2EBAsBvFDoBAORGBy6njQnBATCPK93TACA3+I39tKGB6f+7+cI9AAByIzWXyyq3YUD6v7TOK04bAYDkWMo38oH2gej/+vzbQrR9IQDw/CpQ07TJRSPe/QnP5egUzPNrQPUAVCzQE5D9w6QeDSP1Crlwna7/Xan/nvM2ACA9MjSjyP5hYAReJdt5pfE77k8lAoD06K6ZxOqaPte8zDyz4rxGAED+F+5msyY/28TXilc8ZFaY02UAwIO41azNtV+T/az4J6ZleZYAgBfxrWmrv+JjvbuZluRgEQDwJJrmmTV7XmH/6v2LKYCHCAB4E/1N2725b9VOyTcrxxQCAF7FZLOG7+dbta82K8aKRADwLBK/jey9l4070p1pBAC8i9Im94J9fKt2uskFYB0CAF5GsU8N276pb9UuYng1uv5iAgDeRtwYg7bPLeRfvTcZlGFeEQIAnkdX/TH40T7W+1/6N6IjQwQAfMi13ER+doi2KcnPis/X6f9Ftf0sgcoACLl0Ljf83sDXipfL5B5HtfC36dUGQEj90dT7v7+u4nPNS35wYfb7J1zvd9OrDoAQUmvwij05mqZpZ1b2Dflf9zu/zNI0Tcs/sPbFZhHIHgAIIYSESte7sU4EZoP8GdVvalg+UpkDgOIBAAAAAAAAAAAAAAAAAAAAAAAAAAAAAAAAAAAAAAAAAAAAAAAAAAAAAAAAAAAAAAAAAAAAAAAAAAAAAAAAAAAAAAAAAAAAAAAAAAAAAAAAAAAAAAAAAAAAAAAAAAAAAAAAAAAAAAAAAAAAAAAAAAAAAAAAAAAAAAAAAAAAAAAAAAAAAAAAAAAAAAAAAAAAAAAAAAAAAAAAAMoD+GIJwpf4IqAAEBELAAAAAAAAAAAAAAAAAAAAAAAAAAAAAAAAAAAAAAAAAAAAAAAAAAAAAAAAAAAAzwCcQPgUAQWAKWGYE4gAAAQAIAAAAQAIAEAAAAIAEACAAAAEACAAAAEACABAAAACABAAgAAABAAgAAABAAgAQABA4VQqQuhuxQAwyZaze15Cs3v7DZ8wZ9HMt18d+WTHRiWcl6BQtfS7+j0/deE7o/p0uKpKMgAEH0BC+pAv/mAKcyzjnfvKC+ce12LsDiahraObin0NJbakoq71GZXoM1IBQAhA2rOHjJbMbR5/vUjPtXnroG4y+15vHW8/mXL0yWcrWZ7xFH1GSwAQAFBjwlnTZZMZt9r8/y3x6kmTZI6PLuoQgPYBAHgHIOH5fMuVsxsus5FtuPdRi2QOPBByBkC7CgC8AlBjrY2l08dSrHNt/bONhNY2dwZgTQgAvAHQ/YydtfNPW+ZZdb7NZfjvV3QCQOsMAJ4AGGSr07KKW2XZ7JjtjRgO1HUCYG9hAPAAQA97ffaMVY43ndHsR1YLBwC0ZwFAPoB782312BGrq/d7c4Q2Yzl7swMAf1QEANkAWtjst4EW+fXJ18Qit4s4AG06AEgGEL/RXnftL2Se3XPiGzIVDBAHUNAYAOQC6K/XNdlL3nj15RdGPDv4lWXH//rTIxbf//o/9HPHPXl/mw59n5/2i+7nbYUBaCsBQCqAsvxGWVkz7r7w577yvWs0TdueYJrZRcf5rto9/sJx3ytGbtO5F0gTBqDdAwAyAUzmMp/M32q1XGna7ISEvuJHjR4Js0d12M8dNU8cwO/JACAPQBH22d8J/Z5uY57X42wN8t4oqXNY8UkF7IEPCgPQBgOAPAAdmZy/r+IkqyvOM8mcNBrrbcn+4pyuJgzgdDkAkAZgLn3QwdJOckpibyROG4/1t2AfOa4KiwLQpgCALAAp5+iD2jvK6T9M8c9cbXJwO3bY4RFhAPn1AUASgLvoYyY6yighkxngaWV6eCdmwGhLSBSAthwAJAGgnwLtLeIoI3YIYIzF8ROY49sIA9A6AIAcAOOoQ95yltF3dEZ7rBiVYp4ZfiYOYEciAEgBMJM65D5H+TRhCn+75RmPMKO7lwoD0P4NAFIAfE0dUtlRPjPofBZZnxG3nj7ldXEAJ0sDgAwAW6hxWUfZlGeu6mvaOOda5q6xuDAAg+tVABAEQE3dPxfnJJthAs9q/o5f6ZMeEweQdwUASACwnDqkmpNsttLZPGzrpKeZ8UdxANpSAJAAYDp1SDsHuZSmczlX3NZZ1eizcgqLA9BuAQD3AEZRhzzuIJfb6Vxm2jxttZ2eMgewNQEAXAPoSR2yLiyeyxibgzpM9KZPG2IHwF6mlQYAgGsA7ehj+onnQv8rn7O78q8snfFiOwBmfcIsMisFAG4BlM6mJwOUE80kmU4gw/aJe+hJSHF2AFyaYzV+AACCAMh79EELEwQzuZo+f5LtExfSJ15hBwB5lXnqVAsA3AJgx3GXFhXLhGnxnrZPHEqf2MsWgBJWTxEAQBQAyWCyXi+2F8TH9NlNbJ94G33ie7YAkH4WDxIBQBhAVzbvPTeJZEJfmefZL3glOtef7QGIZ4YQf4kHAJcA4pfzi29K2c/kD+tuNAj62zzTHgD2tkXrCwAuAZCymVz2h7rYfSqQRJ84R6B4K+j7R5sAyBL6b0dLAIBLACRdZ23glvvt3dAzXSQyo2SedZX1ANTJo/84DgDcAtBfHLazR6KNPGrTJ70oULx36FMr2ARA3mAeI9QEALcAyEjdsfa9/ayLkU6f8pRA8V6hT61jF0BalskEFABwBID0K9AlcHCg1fS+W2zczRvEM/SpV9sFwK1Cuh4AXAMw3NvhyFPm+0IxN5EdBYrH3NLfahtAwm/0nzeGAcA1AHLDEYOHrkcHm40NDqAPvlGgeF3oU7vZBsCOIV04/AgATgGQMob7ex3ra3xTyMwHayxQvJutZ4UZACDMUuTDxQDAPQBCumQZEVhpuEHkePrAGgLFYx4jDRcAUJdZW/QSAMgAQCrOMxJwfojBsMAY60t5o2htPSXECAB5i9nPpDoAyABASPpqIwKr9YeHB9NHpQsU70761N4iAMowmxHPBQA5AAi58zejGXhV9A7vRR90s0DxutOn3isCgDzJlO5aAJAEgMT33Kcv4IDemmxmfwmRtWXM7fxNQgCSdtIfrYsDAEkACEkeqL/d9ymdXR9uMH02ZxrDrW8gjAGwPyD/32kGACQAIKTY0FN6AjLLcEc2oo94WqB4zA3EJWIAyDfM91MKAMgDQEja2HN6i3G4AQFmgcdYgSzoNSlaSUEADZhbwVEAIBMAIRUn5fECnmOPKkF/PkUgg0X0EvGwIAAylVmSVBkApAIgpMkmrlz51zDHxNH/h58LJL+GnpBORAGUP01/+iEASAZAEkfksgXjpuHSG4Qesp94mJ5MtlMYABmi8YMQACATACEN2NVY+exowCbraR36UdvGqnJzAMm76Y8zQgAgGwC5iN0BcBRzwNuaw/XFzMPAMeIAuM2pugKAdACk2JfM7RazdKibnUWeekFvT6W/sZAFAHaJ8b7CACAdAEliZuLfSX9cw+m0YOY+vowTAE2YiUzDAEA+AJJeYDrv8zD16Xa7qYbooabfiBMA7MrGsxcBgHwA5HUqmfeZT+l5JAUX2Uy0Dl24qc4AXMTsdT4DADwAUIL6CljOfDqQzmWQzURH0Kc95AwAu8S0YD4AyAdAqCdv25gPr2JmaNr8BfidPq2WQwCF92lmAQBSACygfmfZ0SLmoUFdW0m2ZKYdhhwCYO8mAcALAPTMzxLMp8uM5ueZBbMsyODFMTYAhDIAwHMA9NKxKubDMfvsrCstfMp8mb99AKQ5APj8DcCWjX1bQFcbKTIzybaGnAMgswDAzk+3GwDU1I1j3MfMrp8HilkmmHbM3kQiWwAqnwMA/dhAp5nqOKGPzS/zS58XnRXCVPhkihsAzGaXAPD35dEJ6x0YbEX8KdMHwlz5c2qJ3QJorxJXAFIOAIDuEC6d5C7HCdFLeEbwBzRgSv+V+XVgIvN0Ib+6OwDkAQDQC2YjhdWOE6In79XTOeJbTWCjkPjZzNEfE5cA4tapCKCBxY5slU4ZLJ4Rjdr5lk972rLlNxkMCLNX7QXpbgGw759QAkDCZu2TBmYHLGaSNHgtS1Jviz0g4ukJAaN1D+JeQGw4LyD8AXvoy8Q1APb1lyoAeFrTNG3pA0aX9onT2SQ76R94jZY1ppLZpeQ0Ohn9Vzam7GCzG69/ZV+GW3+6MUkCgGrnVQNQ46+b3+yFnXRuu0NtvmNTPFlIP6FnNE3LW9TNaGfAYu/Z+yFpzs0h/11nrVdcH24FerbZswPbAMiLqgG4YIuEvIyX2lMIivfXWeBpNGP/ry/4vGX99L4H2uw2WofNhs4+U9OYDaDjWv/IHzSQSAFQ7JBaAO5njs/7cdZL/W5rUPvGB5+ZtPiMQFMkXvAq553v9brighu4UIVeP7OpGL8TNEGnc7VNg/9+C1FS+8mHdY5YHicHAOmhFIC0o5pg7AzZGizQTqyY/drTD3Uc+MbiLTojrIdNXghUS9eddvynTyeOn7NqV7bup1mViCQA4Y0qAZgm2v9aW4OUBoskknOdWaGuOiZcqgP1iCwA7IYjMQ2gtXBLTzBK6nORVO43r0adfYKl2m71mjoRAOwbKGIYQPI20f7fZnSvH39aIJVhVvWotEWoVOvLEpkAauSoAqDsPMH+/6OZUVJNBVJ527oiaRkC6S23fmwsBIDdezaWrwFafCfS/4eMB417204ku7edmqQstp3g7CQiGUDqUYXGAe7ebrult5j80sb1PWkvkd/tbgF59y5b6W21tZ2UGADSR6lnAb1/tNd1n5U0TafCHDuJzC9puzLJg62vK7Ies/dyMkEA8ZvVehx82XDrr4HvW1smc7NlKh83FqpO+akFpsnlvZlmMyVBAKSNcvMBmr12yKypN9xhJ5FQs1f2GKdRMK++cIUaTMg0TG/3+MttpyMKgHsEGvMACAk36v+h7v133jdP2N+5N3TVuO16/7YnF/ap7qhKoaYv/KqT3k/DhDQJA6iVq+aMoEqdXl+545+h2EPfTnnqjlKipSjcsMvoRb8d+XMEOP/olpULhqXHu6nWpYPeXbLh4J/TSfIOrP9s6mPVBFNIXUDFE9ZnDKTPuFwRAH9GkWrN27dqWLNcIXelCReveElanLTKhctd2ape2TgSzIjpaeEIAEAAAAIAEACAAAAEACAAAAEACABAAAACABCBBXAxusafuDigAHqia/yJngEFkJGCvvEjUjICCkBbhx8BP34AdPaWiQSASXpT8TbMQngcG/RmwU2KAIAhGiIwMSQCADqj2YMTnSMAoBqaPThRLRIXI6vR7kGJ1RG5Gu2Fhg9K9IoIgKRtaPlgxLakyNyQtkfTByPaR2pIYgbaPggxI3JPpb5D60c+vovgU9iyuAyI/AVAWRLBSF2IHohsLEwlEY3Qk3nohMhF3pOhiD+cankQ/RCpONgyCI8nyy8qQFdEIgoWlQ/IE+qqLxxCd/gdh16oGqBJCgn3LEOX+BnL7kkgAYtLBkz9fFMWusbryNr0+dQBl0jrtv8B5AGJ0sBRLqAAAAAASUVORK5CYII=;" vertex="1" parent="1">
          <mxGeometry x="30" y="20" width="100" height="100" as="geometry" />
        </mxCell>
        <mxCell id="0CFdpE0hCqeCpiIAvZBW-9" style="edgeStyle=orthogonalEdgeStyle;rounded=0;orthogonalLoop=1;jettySize=auto;html=1;entryX=0;entryY=0.5;entryDx=0;entryDy=0;strokeWidth=4;" edge="1" parent="1" source="0CFdpE0hCqeCpiIAvZBW-3" target="0CFdpE0hCqeCpiIAvZBW-4">
          <mxGeometry relative="1" as="geometry" />
        </mxCell>
        <mxCell id="0CFdpE0hCqeCpiIAvZBW-3" value="Convert to&lt;div&gt;Simple Python Dictionary&lt;/div&gt;" style="rounded=1;whiteSpace=wrap;html=1;fontSize=34;strokeWidth=4;" vertex="1" parent="1">
          <mxGeometry x="230" y="80" width="270" height="160" as="geometry" />
        </mxCell>
        <mxCell id="0CFdpE0hCqeCpiIAvZBW-10" style="edgeStyle=orthogonalEdgeStyle;rounded=0;orthogonalLoop=1;jettySize=auto;html=1;strokeWidth=4;" edge="1" parent="1" source="0CFdpE0hCqeCpiIAvZBW-4" target="0CFdpE0hCqeCpiIAvZBW-7">
          <mxGeometry relative="1" as="geometry" />
        </mxCell>
        <mxCell id="0CFdpE0hCqeCpiIAvZBW-4" value="Convert to&lt;div&gt;JS&lt;/div&gt;&lt;div&gt;structure&lt;/div&gt;" style="rounded=1;whiteSpace=wrap;html=1;fontSize=34;strokeWidth=4;" vertex="1" parent="1">
          <mxGeometry x="560" y="80" width="270" height="160" as="geometry" />
        </mxCell>
        <mxCell id="0CFdpE0hCqeCpiIAvZBW-13" style="edgeStyle=orthogonalEdgeStyle;rounded=0;orthogonalLoop=1;jettySize=auto;html=1;entryX=0;entryY=0.75;entryDx=0;entryDy=0;strokeWidth=4;" edge="1" parent="1" source="0CFdpE0hCqeCpiIAvZBW-5" target="0CFdpE0hCqeCpiIAvZBW-3">
          <mxGeometry relative="1" as="geometry" />
        </mxCell>
        <mxCell id="0CFdpE0hCqeCpiIAvZBW-5" value="" style="shape=image;verticalLabelPosition=bottom;labelBackgroundColor=default;verticalAlign=top;aspect=fixed;imageAspect=0;image=data:image/png,iVBORw0KGgoAAAANSUhEUgAAAdgAAAEnCAMAAAA9w6JnAAAABGdBTUEAALGPC/xhBQAAAAFzUkdCAK7OHOkAAAAJdnBBZwAABbIAAAhwADHECJ4AAAA/UExURf///yIiIs3NzTIyMkRERBAQEO/v7wAAAHZ2dru7u5mZmd3d3WZmZomJiVRUVKurq3BwcJeXl1xcXJWVlUhISIQNu3YAACAASURBVHgB7V3p2rKwkhQFBNzOmZn7v9apXhI6BDCKr8v3tD8UsnQ6VSQETCW73dpn33e3tfjVuKHJom+HNgt7YcCMu6d+6OZLmCbO3f1jb+fdmoROvZxEJ6dp2lOXfGzK/eF4PC7AYtPNH++Pl2AbCbiQU1vV84mTUMo2SEjP+Qbj4mm324+nvck4527doAomTTzMEsNdcbKDTXZ8KPJ2dOYC1+TTDl197fbh9NRd626IsSF48bfvzshOLSrzcjFPnrY7Vufuiuofz119PEZv2ATCnyX21NTAh3BtyASOqu6060vsnc7IJczukQ+gsJ26IwdhjAKPxwOfVtbhGXdvx+PCtZQmJnd3F7qSryC2RQnXochbcebakU+KVddUlx7ntfjWHQ/DDZ4Xdla36lgP/aUW3FIvV3hFVJr2XFOBqNEBP/3RNgHQEZ1dNzkTW7OpPVHANaqkF5bgmfRJEMoNngycHVSTf7u9gDcgnlADXJXJOONuv0hsmlj8aqtQYelairwlZ6gfwQ8zez5WVOP2cGzo6kQ0NdZDqJDxd+4QNZVreuCqpV7OZRjD0rQHvqyAEF/Y1/SWmiYdTdw/GrShXFDdM5J3jXRFfcLEkh3QcWzkeu+5J4Uj0vDOjB3FU160x6PxeMbdQmKDu0jOjg5MBi50e90seBucQYOhUQWcEJfANNUB14q4mraZBWPIfdWojvLNVGkh53zaQOwk0yNm06yVXnfUqHCtnppQrRiRpk/PCKujNPEJsSe+PgKW9Kv9HxmYcRcpFrriJHH0CuzQdVip1Rie+pecBWdgEFSchF5KAVsoG6Fcd+2Yk6zZCTV7aQFo8tQpJV5mydOAubSW2BvGJtoMJOmlxyfc8zrcKenT9nQwdBe5ddBww7QdNCX1r0VnXO0OEf6z9KmpS9OzvqLbLHe+CbGtXh4BS/o1pcaanTDcGtgxJhZDsHBd0VhHPIuJUfjoLngBDx13pogo8TY4A4MgFo6HK0n6aNRfO59pLWfOwy2Ho/aoAXuJwRjD3N/6/tbubvgROlISpEaGLVgZid1XGEVVx4qRkKQd7sAYSoDM+tghCId87+xxn1f4MUBAphHjM/dK7B51l2YwjL5ZKefY+a++prs+t52E2BtzTWMB6d8Ane0rxV1Cg8Yy3OKR8oCWI7ZMBdK2YNyFjbptQk1KvA3OoBj0ovEuLV4OxDS6Fbn852trQscRmAZSlWhcxrXpqSb97iY/MyRQ9xXZYguR2BOGg2AQpugWp0jV2pEeKCOSghkaZjTn/oaEAAF165EpNktUL1y2bMRQjqRytZnqZIcgFmMP7mYjsU1d1zR0pY9i2TdpY1B3QXdLYxbqU5GyGVpyk0o1FQh1I3PWXapYHZ0v8Vad0VuqeM1WqRfuGEs4ES4ViVn6trk5DarUdAwzo4Z4tLhWfiYkhBoFtjh/JBbXF1mAPaqcINUpLziDVXxfEIUcxCPS01XC35fR+XEIwHcdGSciOQ8eR/45ZOYLxMr1SI8cFI8CKnSiB0NsXYOCa9ISxI3d5di0xCg1ZvxoRXCG+LECmphLt+5SBxorArbuekvE7rsrughqCziJOeQY/Rx96DK7+5EcJpl6GZxFlakrRTL6SUlQFgJbYiQSi0ubspCzaJdk79QxkQiE1XN4lgw2pURKXnNRYg53qli73Rn5zKkFUVLn30Qs+9DsI7EcpC+zqLz+ps9oY/ZQfbo5UeXFSLA1qUBIjESJu6E5iNkCb8mZ3TD0coexdQ3HA1A1V4tYnv1GsvQCUC+Ds+BphliTaGRL7EdiYZlyyhiCiKWPDsBxhFaDD1UBOYg7tSk3ErEl2SOxQ9NSbKQ9moup8wMmlnrTY3MJLZb4CR/GcnxyDMGh+rt2QAPKiU0qEBNPiI3Nga0WeCvOBB9QbvCUhrhS7ZbuinY0EFJPf9EGdBihMeplcPYesSgmsCUGpsRq7cjeCQ1DuiZkkquS8qTE7viijGQi+1i7G99mwjgTMIzJ1PvsR4jV64pi4UgwSKeKJUKTV2Wh+l1zuGUtFo09qUBITPYS60gVr8ISb1NicRGHd+S4MJtdS/0zP/rwFcony19UoxFjpFMvg7P3iDVsSSGRWFxwhDu12GCWRgV8K0PYOO5JiMWLUGqWoUZmNNJW1NzJX6UTMIxGpPD8W4mlJ0H2wxDLbygClpPOeEQB/kpOpKQrQoZSCBrLDlhR6XasRxktsWOO3E8OCc5INCGnWYBIh2uQsUPwiM6CIQRTbu0fMcoAxWOVGL+7xFI3JmxJIZFYGKIuA88o1Neza/TNhRF1uP7ajspIiK0pBN0IvuUTnx9qeeNEt1lBq+QBYjdof8RDY7IIt6TF0rv62GK5M6Zz/Yi7SilKRLASixh4nlRAE3PW6C7OkntsibcpsXQNSe8EklCN8HY8Xtnq68IPKhqui4HAVi+VX0Kdes+AZkLChC0ugMb4cgsgKMESXkHThYYT8BsuQjwKIdlBHhAlHaWA91eCrQqNEhn1iR/NWK4/epiVx/SSR37Y0/6IiiQPUQw7hOcWuj6o+nx7APDm6R+pqDhU5sKPfLgCgXp1ohE2taJpBWLbUHeRRF5TxoulxNvoDGdH74DxMdzHLYxew+u4Gg/63HI1zfIPWcMgph1q/n8DVaIWhq6Lr3XE4umgohs54YBYalL4oVhJG9hCwI7/3DrqQyI92uMlBdwYqJ2RXeQ4HmBojysEATGq45hjNaAudWUeYwlcgENOMtR460EfKr3gJR2Xq7dUUAI7kp1t0CMq+YOq4WLiIjSpuFsNO3pqrclXPDz2Df3N0sj7lqwCSCwfdpcO1fZBqb3vrXVGjZ3OgLDGfzp8DnAbPJmVvqLY7ZEbn4YySJUOAWZ0J6h6cz7B+HnQ2EDC/0zZUm/Mz74nyGY/bd/PX3inXnrakGuQKyycxt+i1+oxNQ5Oi75IKniUjDY4lIPYIxq77E2KhQosuPuwt8HzvYUD2KTghFRLv8iwWOs9mTrNk7Bk76XhC/94LQS/tOhnjM37NR/6jP1/Jw//c51VJwwlsohPB8y6+7XefhStfROHINEPefiJp990MOPuF3v7UeTCw6hxYigcGposbzvM3f1mb98GixfkCDgCjoAj4Ag4Ao6AI+AIOAKOgCPgCDgCjsDzCNBkcP/8ewjQn/H++QcRUE2ozD70738Hgef7cM/pCDgCjoAj4Ag4Ao6AI+AIOAKOgCPgCDgCjoAj4Ag4Ao6AI+AIOAKOgCPw0wjIMmHrVTjxem7raTz2VQicurq26+VZu6dcWWWjzTGtznNPBlqSBppy+Vd0SK1JaFAqo2CsrYQVb41SVJYJjms0Gd/+8BDL+QWILuR3nwWE1ZYLViye1HFq6j/6d3GBJarx0Ax7KPtJ855/6rDIUx6VhZSs3FqN61Rk+UMArfVLy3VVvCysDcUiZeG0rRusGngxOvquOd/6G5aTmK9JyPji3z1WEVBmL1T2Pgug6sBXLJR31zFOOtZxauq/5ZZQS12j+BoXZEhq3skSD7f52CQpFq6IsKcR5qwuIJYWICAMsDJGYrDj5RjEWHtQ4V5Y5QLrLUhb5cUNTIl/fog1EYKbsmhqFiDVwUISd5lFzWnJifiZmnrAEopjMyddySHaTA7MgjBJeHLyamKxdl6ChNaKyxzLwsKdFDKuNKcL8CSu/eUJVtrQxZh3vHoOrYsxDWAX+4IVgWwduVapKY0usYR2JrepxVUPCJTPENunl6+pdD+u54V1YWiNljFgZxf/+0tG1XZXYyEdOVZiswC59rCAzF13TB0p7dS2RpdYwupAsfFjSQwsgyHf/HPanWgI02KZUYrZhVmafCnsdQMDGl8NtJ5uaEWniw7F9ojBSbhksFYw1nK5WzeqjyBxiX0cZzKVtr3age5x57A6ElK+eekN1KpRDJXYLECqU9LOTB2pzlPbGl1iiRYiCpc4rT7T0TpFNP4Y6mP1v1iZBneuAUva1DVus1itCFsu8JJLLTaaoGJo7SRaegfgKrHdFcsD4Q7IazR1DeL45tfW9YXW9WGO7nyJ//smXnKc3lRalnsSKx011snt+I79l0ZjNSks2sXD9UDsNECIHcYmtOiAqSOlmdrW6BJLeLoANZUsFH7iu8BeFvPqaYGxqzQabWi8JhvfzdoDDafOFIuOaBho0SUhtqOwG1flcLyC7wv3ki0vSYuFkBfrZCKwtUhN/Vm60I+p9DheoasNxJZdMKaI1x0SKLitUr8UiZ0EMBptFdaTXCnb1JFSTW1LdJEl5KbNSI6yz8mVW9eBveS9b5gm4oydoXVP5fbW8dppPLrpdPU1JfZMA4eWydRnJb5adHDzQFdMY38edHDRVMvxNCUWi8p9mFjUnVgbiU0DaC+Zc0Mrn937mDpSUm5Jxjat5F5oSUqi7peKvXFvgYXZcMzXV0osQtuKR3xYVhIfXlwyjkfDPRap9kosGq+CfpBL4wFiYYWZvVJJNGY3lU6J5RYb7uRU4ls/DD4ezeCFITYJOOK9BUNx1zGp41hlurKNKUSXWtKi0Eei16R7FTYTOFdgeeAbXEasLkstLYTXadMk1KzF+eFacfcYAjitNqmHiAWVaIxcS6qgIVa9Zec5WBZL5PN3fzGxsmaiITYJGLuae84ZYrnK3GXxeoxs20Bwz1KI1yzE2xXLVA+7mm9wU2LDc4bp+ibEng50a8xa7FPE4lEm+IdfU6sz25e4A90+bIDJ8o5DIZbHS5ZYG/AosdHtqW0DQUyzcNDzNRFRO2GxUOxdhnELdX4UzK0wNDTpiNsT7mnynmdMElrsgZ+LM2Ibvm+jEbPZO1/B/3RYH0J3FS3IGro2eAxruARCwA7uvfOj4OPa0reZecBWYqPtCMH9CvZ8byUGBQ5c+hi5YzlXed0+IfbMfMLzqzYZZEpbLK4JKjQjVp88ZVx2z63gfzqsj6FY0nlcJraWKwa9to5N2qKti+65UB4feKQ1SrmV5AGbiQ22AwQF3oEIAmQfXrhLI4nLfurAFrfPPQZ1AvQeb2XpmRyPqlhcFWXKNYD7M7ViGvjTGvi7kwZgZWeUsD9ij5cTHojDirFrvmnH2tPj8PiR0PbC6++CWWqi7TlsfIIt5bjNDsk+hmPuPzs6yErP8EVH8VlAbW4cd9yY3FKmph6wtMPzIo1vY88qL7Llu6eVgWk5ZTynUQpahxfpmShaHhdhvF4vtRF6u0GQD/g+0P6Y/0cBeHinH1BPj8uHfVct/UE41pi2BKIH2abm8ZxGcKgIWbld4A8pOFOdY7+LAMpUvDDwWOCWI3pUDP8n8fLneQAjJXe2OyVJzfXmCNQntnndZrM51R1r9KYwohNeyE1fy+3zp4nTwqK6LYW31qQ6QOFTu3d9W0uQLeubBazl/oO4rHZZwPOFvtDU8054TkfAEXAEHAFHwBFwBBwBR8ARcAQcAUfAEXAEHAFHwBFwBBwBR8ARcAQcAUfAEfhLBFy6/Jfofs52mXT5Bf5lsuYX2PwLE6xF5jk5kCZB9zxVbXO8fMXZdot+pMJnzjWa/o+aKpQ9LxayFFEiXV7KWxyey5qLs7454QXzeER2tsf8ofN+otrGdEosF4BPkDCtupcKnyemH5M923KK1M2FE0it3cePc1nz4zbelQPUhRl3B5mkyHMSVbXdi3CcpvylCrMF9xLh89S0zlG0UsMFM2lwMjs7jTJnZTODTYYnDoOmgOYqx6ldT9h5S5Y6zNI8yQxehV9U2xedwYlJlUXOpPNLJ6Y1Mp1tXWD2a4gNcgP4LLLmAuc/l2QIk0s7aZMRfjptpTXfojD9jp8psRPTGlkke6ZycNfHnMKobmaxss5GXZYuS6Y7bj4ZbfsaljU/aedN2Rqday/zmjFVlzsZq9qGVFhb7j2XUmIx31fmj4ppjSxtsefDcIFsNaqbd0G5vCZd1kz3/HwuPpM1P2fmXbkU75tOHJfTRLVdeIOFwxNiU9N6luojFms5kOilh2oiDItYsiHKZdzy56XLY6ZFuxsijA4HNS2aar2htM1ZIXIgG2ed3p6rtkf5yd2yJsSmpiWyVPYs8lZySodFRrmMIPY2ky6Pme66+kSClNigoHjC0JuysN6vDYNjht+qtjFOyKfbL7g2IRYtCzfFYPox2TN6bO3/7XhXlMsglh+QeVhlpctjpgUHNwWnxH59i4WqBes2XMLjjHIjqm3ggAcfK1VZR0YyR+FzahqRj8ieaVkivt1HYqNyOSFWB82SKmZa9/O52EzW/JyZt+WC7AwKtPBiKTQ6Vm3DhyBMLHLHEMucJKaD5SJLSHSCspOahRJrlMvLxMZMpYU8ks5KzrgveiTzJ9Ke0ZTiHSPAr6rt4icddjxkjrWwprPImGrugB5s9ryajhJrlMsJsVa6PGaaM7k1LJM1bzX41/mhOiVBqXwC/PJUgicdfXTsS5YtDJmDMTzIj6azyJhq7oCXJOCRsBBrlcsJsVa6PGaaM7k5LJM1b7b4xwYqWZuFSwnwy1NJHdbU0ZVH7jgSMo/JjOk8ckyWH/G6CVfStau62SiXF6XLY6bc4CtCMlnzK4z+oQ37ijdRbV/Cm2SsZKotd9UNexeShMb0I7JnorPuDqwCV3VzVC53rFmelS6PmVbdfD4ykzU/b+odOU/xgWai2oZ0OX7C6GrZoYnwmRNG0w/LnrFqouqeVd28qFzeGelyzLTs5saYT6uYH3K/+EH1Iauc+A9NP+6M53AEHAFHwBFwBBwBR8ARcAQcAUfAEXAEHAFHwBFwBBwBR8ARcAQcAUfAEfhqBFw2+9X0PO3c62Wz/4Y+drq1753/2j+qj10g/7Wy2X9FHzvd2vfOn+Z/pI9doKwsWKc4liW+l+rf0cdi5lHcN0b2WVivu5nhhHnBYcIU5LU0y1gns1nN2rq1V8S+lNh/Rx8LMqKCUrZbWgc7nYj4In3sepF3Yl9J7D+kj8229r0DY0rsRn1s3MgXheJur/cBOTqJWATfEjzKYsO+wMiEwMIdf+9US6NtX/Pr+tjp1r53EEiJ3aaPjXJYMHS43qBbxBzjcNTjHgFfwo6fURYb9gVG3CM7/t6plkb/S/pYbJuVbhu8DsGEWD1V6a2eFepjjRy2bUiFQB37eKQ7s8qKClEWa/YFfmjH3/VahdhxvEEDhq9X26UiVnhsdzWm/dBwn6X+7vF7LO0vRqCo9FaILdXHGjnsmcu/QL8xHimxPevvoyw22ReYZ7i/8h6bEhvVToH3r/tNRKygEVxGfSxvdGe29r3jvDbKmCox/Zg+lm2IHHbcZ3s8SoiNslizL7CVzUZ/th2kxH59i01FrEIsbmay0x0Ta7b2vYOMEPsafewuymHHZWPGo4RY6lRYSyvxvC+wJn1li/2X9LFMrN0leJ1ZQ+xWfayRw450jkcpsUEWm8Xjzrzu8SOxVpn06/pYIZYHUE/cY2nD11F6O+2n1zE1cthxNDoeJcRGWazZF9jKZtdLKo79l/SxSmzc2vcOCBl3T+tjrRz2LFrOdg83WKWLI961HSss8OApymKD/B5qLiubveN1cfQ/pI8NxGKZEFn/aR2EjFjgr1s3x1eK6xZirJHDQn2N3Vd77MY7HlFfAJMwj6goizX7AmNEXr7jbyz1zsE/o4/dTbf2vVNxexeSpObt8WP62FEOi5EcXkdg915YHI9OuNSaywkLPoHYqKXF4gayV/AjO/7eqZSN/kf0sdOtfW0VZ45fq49N5LDjbr/j0Z7+RQwS2qCl3Y3xVjY74+2zQeEt5rP535pPXriuF/nk1r4lptcL9lhHwBFwBBwBR8ARcAQcAUfAEXAEHAFHwBFwBBwBR8ARcAQcAUfAEXAEHAFHwBH4EAL7oXzzkA+56MU+gQAmvXzlxN1fET6rVvlBhfMCUanweTfYrYCTk4X8SbCRtiXhHz35HeGzapUfVDgvgJsKn1lO0Fz6G88X5LhwspA/Cf5GYn9J+IxJ9LxH1oMK54SD8cRMXaNAnbQoM0GTkzHL0tE3EvtTwmfF+0GF8wIdk+mneipb+CQnC/lN8BcSa1z6gY2BA7H1IezqXDLl3zBgD+eJla2ANa50X2BC8dYNtDPxHvpmmpGoP7bAtx7/lvA5ENvRZGvG6eXEPtliD4fruaFN4mmfHZICYTZs2FrxrYSGwozABHeZrxy0B1cJLZnhjyn/jyicjQF7ON9iReqscYW6Z2ye1mDOMObz4zssU1LHjdpsoW87/i0Z5UgsOC5WOC+AOUusSp0lrlT3DGK5SUiuM+8lfvqw1jgl9sPOLDAwBhtiIZWoaC85VkCOKR44yog9dN25OdONEpeNOblvU4mVH2i7yMJnGywEfuMKZr/UFfMmwGgmm4mNwmfwLMMeIdacPEAst4wDMG0/3UZ+S/hsW2y5wnmBGDHGxPJoxyr0Jq15wUIMTlosq+6H53uSaHXTgZWcfb/wOSG2WOG8ANCEvOQ0OVnIb4KV2EE3Em+OJ7pNfPTzW8LnlNhShfMCwBPyktPkZCG/CVZia5XXdsfmo4867NlPCZ8nxBYqnA0D9nBCXnKanNhM88cYL6GFDmHbWrSWL9Dt/ZLwWW8cDyqc58lAe08e2xOpc3KykN8E98216g51ZLM+mMiPHf6M8Fm1yg8qnBdwnQifk62Ak5OF/Elwe4KGWWXNFPHhlxOjbz8lfB7dxtGTCufExstPPv6s8/IauUFG4OPPOs7DHyDQ9rePP+v8QbXc5OXI74odiH8NgVM3vqT91+rm9XEEHAFHwBFwBBwBR8ARcAQcAUfAEXAEHAFHwBFwBBwBR8ARWEPg1NV1x9tdraV6c9yvCJ8zxXMW8IBieSJ83mIKdA3NsMdMlE/POU0unN8RPmeK5yzgAcXyRPi8xRSkdTLt/sr7sSTozp7cCtPNZi4N/Cnhc6Z4zgJ0emFJ45kIn7eYusoWV6dkdtwyA2aPrOVEW2N+TPg82dM5k0ArsSKGXMdmMsV0i6n6KPPD4zTF9ZLfQaxOdSZHfkH4PFU8d1mA3OdKFMtTYjeYOqda2LCR8x6LBGEraKU7bArd9tCusjgayssu/C1/QtoB2/K86mP7rO/f8Tnb0zkPEGKfabFTNfUDjR/XUR3nTYSNnLFT1hH6Z3TxPFqOm0IPdXOsa7rNnurrpWsqEE9paf+l1y0X9WPC56niOZNAKxsliuVpi81syzVSYmp3AzGVtDezkfMBW2PRlnZ06zWbQoddJ9uK2N03JJeGqOEwDOOUc4Rs+/yYjBLPE4nimbazSwOYjSLFck7s06Yg6qRp7NT2YIN44g0Ka2mBvJW02RQ6ECt7PyMDCX062eJwG5smd0rsp0WdxrHZQ96W0Cqe84ByxfIMsYma+kHxM55lec9Ds5GzDkzHsZJsCh2Ilc1JMbZhoXQQ/sxW/PHAlNjC4frjxbwoB/No93TOA6x8eb1UIXYUPtPbhcR2uSkpqGWxsdDIGzmnxMZNoQOxSnjLv9xVrzv8UOyPCZ/51Q6GKp1K2ZlYK4GeNMM1LAyxZHaLKS2GLY7tEwTyiIpDzKbQI7EyCP4TYq3k7AeEz0ysUTwLGzZARjxrhIa4yTWwwVQvbuE+iQOzkbMl1mwKHYgNePOaVa9usT8mfFYEz7p/vTYz2oVbNrQXbAN167/zxD5jqo+CZ4ybzEbOhli7KXQgVl993fhafDWxQAKbE/On/ga17h0ulNioeNZmRk8L0lQnbK2ZmyTdYAqsEYb7hlaKMRs5Vzwgwj0UsWZTaOqi91idpj2QGATvdMlLPqaDl31+SficKZ6zgAcUy/YuBDS3mMJLq7quK/nbLmzkTGu0NXg4pp8Bd4umPuzl+sMDGqdt4UJX0QJEAyKOL3yK5avjd4TPeFQEUvzZ0yNiJoF+QLE8FT5ntnmf7fLHhN4In81GzuItfdtNoffhpXKrrxbHZK89+kHhc6Z4zgKeh+iFpp53wnM6Ao6AI+AIOAKOgCPgCDgCjoAj4Ag4Ao6AI+AIOAKOgCPgCDgCjoAj4Ag4Ao7ANgTavpN1qdvLNYg4tln03B9E4BZkHjdMiODjfXWDSCAEv9E1kf92Q1p0oh/WJNgRmWRDujHyRa7HN3qKojJxchYQ3Bvuu/da4TMDMZjJ/LSpEj4VJnzcPkEsyX8rkFXxPCx2D1+JfphOjmfaHQwiUI4ZekzR+cAOX5k4OQtIHA+1mf/lpGMvucVUKABiK50XiF0BmM3hE5yqOzJXDzPgk0arM/hEi6cne57FGNN/YsGFTJycBSSOB8Tnf18ofOYC9oduVMsJsecU1Xk//ihUkWAR0ViEhiabqe7OxL3GvFpDNBa9djQjTs6U0Dzb7RkZJWbKaQ8uG+YlGKx5pXHni04epnMhVr4L8v5Bkuh+sreThop+WE9kx4yYvnwC3+u8znXOG9TKoVrqXm5bZiqXaKjJRItZ4wdW2tEZUdr2UBzLNMRR4JyKoSlcr6aglqbcr/ho9S5ppxHpa1CGnLQyZTKmf8cCGdMK5jrnDWplrUkoI7ctxJY0frJxQcsY+z0ilhTOB1I4pwJnI4Y+H4YLDV1wWdTXbuIQBW/4iLX9ZDM2LcNuf9xLk9aY+sWqv7IaYLZ+utVzHiBslKiVJzhuMUXeV7hRnVgRSWe2K54InEcxNI+temo7Ri1NuV/x6Y5VTf1Z+oAglY7bH9ddhz2+uDiJuaSLLrzCkRIbJMNIdc5ZABP7fuHz7qZbx+pUcEtsInC2YmiJoOUJjFq6BIeSNEwUjf2FN82SiH4xfOz72zUQiwvhSJfnBz5ELBrDuNVzHvAp4XPdQORRV+GCt8QmAmeJgJQHNUEvr0+NRi39Kli1Q4KUCKCNKmAr+pUkvYyWcNLiZUrQKLzKjTI7zGMiTiamkwDr+LpRqdZY5Q2mqBO+YSWYPt6QLbGqmBWBsyWWeh/RrEgSVkuvO10eq8SiDPQlBdsfc/oh3cixvLSNKZnYROdMbCQBac+zVp4hlqzkbkk0HQAABYRJREFUtstNQcepY8mrjj1SYuW9BbOXELs7Qf9JDUa5X3P30bhALFZ5MllDKAfNnNSfePMUwLc6ZybWBpSzkVRrzna5KTzr6PuaMGqzxCYCZ0ss5YE2D7c1o5Y2LGw6DNWLncgSlwi/AEZJv+d1NDYV/ExmaVVW5yzEPqNW1ppEN3LbDxA70NCWPiKGTUfFicDZElvTiJUVz0YtzWZe8BWIDZeamAyhfBZPSNSpJzHsBS6UmwjgjzpnJXYMKGdjUoXcdrmpUxNf19SSSzTPqny2AmcrhuY3XFeSwxu1dDka6ylV/ts3QdjOyRP9sF5OkOniCqvlLwyosT8wMM7EyVlA4nhRzUOiDabwxhrLb5EhFjBXA4uda/pmNbMROCdiaDjbHXhxKOqRVQ0d/Nn2K/LfGmN1epoKn0Q/zElQKhW845gDNZPTIWiQQ64//811zhvUyq8WPq/XfkngvA8vFAFo/5knjdzxKMvOo94QkomTs4DnnXihqeed8JyOgCPgCDgCjoAj4Ag4Ao6AI+AIOAKOgCPgCDgCjoAj4Ag4Ao6AI+AIOAKOgCOwEYE4H2OjHc/+SQSChPgW/yqH4CfOXIhy6He6OJH/JsLh4O7nFc+KSKZzzgIS/9dxnNR8iylRDUNlfG6qIBu+HIK2ycqh1116ZexE/psIh+nkOxTPWuNMnJwFJP6v4zSp+RZTKEgnxrXdsVbt8y1Ms7Ny6FWXXrwP9ET+qx5+m+JZEcl0zllA4v8qjiAjUY5uMRWIJb0db7aCyWlBHWnl0KsOJRO7V1MWRU4nYcrsSZllHOI+r3jWqnyt8DkgRbM4earfOYjcEjn0KiNvIfbbFM+B2EznnAXIhVmiVh7JYOubhM+jLTSJuBAF7KZy6D1uwacL7TPbDp1qB3Qj6Pl9oFevhPXI0SWpXt5iv0HxrHXIxclfInw2KDaJ+sXKobGFN7aArg6gvqtw6+W7cNgIem4f6HXm7sQalyilnn6b4lkrgafD7xQ+GxRVCqAep3JoqCzxFHTFQj2kz6O7MQs8ZHe7WsRTiUxarTzzY1yi7HL6dYpnrRk99n+l8NmgmOyslsmh6XFIeBSFndkIWolNZNJa72d+jEuU/UsVz1ozfp/zjcJng2Kyns6sHLqXTngcLMlG0EpsIpN+htGAFZcyyn+tcFjc/QbFc3CWbkuJzjkLsP6vwyK1G2u+wZR2dFye7Yrn5dApsXEjaCVW+RaZ9HoNVmNN9ahm5tKbO/mU4lmrIG9gMeT9th2fDWyVUfvPy6EtsWYj6EisjKrHBr3K32KkcYnSJKczJx9SPKv7QqzVOdPFCJHb8Tgkq25p+tWfpHao+QZTBrZe31BQ0QtyaEus2Qg6dsXyHGTsrFZjKXJaPen/JXWM+7jiWb1X8I3OWdgwAdb/pTpPaqenG0yNxLaHJv4TsFuQQxti7UbQSmwik16vwWpsJG+mtjHu44pnrUIgdtQ5KxtjwGZinzGFC0ve+Q+VyF3Z3yU59IUT4yaKt1NmI2ho3bN9oFepW49MRuf0Rixqs+N241+geNY6ZOLkLCDx/6GabzDFWlssB3RoruHfHRQ9L4fuqHdBN5tvBI3nuMk+0Ov+r8ZO5b92m+PvUTxrFX5Y+LxMgtkIOgqOl2TSy1ZeExMdeI2556xk4uQs4Dm7lOuFpp53wnM6Ao6AI+AIOAKOgCPgCDgCjoAj4Ag4Ao6AI+AIOAKOgCPgCDgCjoAj4Ag4Ao6AI+AIOAKOgCPgCDgCjoAj4Ag4Ao6AI+AIOAKOgCPgCDgCjoAj4Ag4Ao6AI/DvItDT8gL8pd+fr+rokvj1eY9WPDDQbff2hTXH2pi0ygNJi+V7pQ5vihpd+haPVipuoNvu7StrPtpyYlf4W4z6UmL/H0g4hhlkb5/lAAAAAElFTkSuQmCC;clipPath=inset(0% 38.33% 1.06% 0%);" vertex="1" parent="1">
          <mxGeometry x="0.4299999999999997" y="190" width="159.14" height="160" as="geometry" />
        </mxCell>
        <mxCell id="0CFdpE0hCqeCpiIAvZBW-11" style="edgeStyle=orthogonalEdgeStyle;rounded=0;orthogonalLoop=1;jettySize=auto;html=1;entryX=1;entryY=0.5;entryDx=0;entryDy=0;strokeWidth=4;" edge="1" parent="1" source="0CFdpE0hCqeCpiIAvZBW-7" target="0CFdpE0hCqeCpiIAvZBW-8">
          <mxGeometry relative="1" as="geometry" />
        </mxCell>
        <mxCell id="0CFdpE0hCqeCpiIAvZBW-7" value="Convert Blocks&#39;&lt;div&gt;JS structure&lt;/div&gt;" style="rounded=1;whiteSpace=wrap;html=1;fontSize=34;strokeWidth=4;" vertex="1" parent="1">
          <mxGeometry x="560" y="320" width="270" height="160" as="geometry" />
        </mxCell>
        <mxCell id="0CFdpE0hCqeCpiIAvZBW-8" value="Draw Blocks" style="rounded=1;whiteSpace=wrap;html=1;fontSize=34;strokeWidth=4;fillColor=#f8cecc;strokeColor=#b85450;" vertex="1" parent="1">
          <mxGeometry x="230" y="320" width="270" height="160" as="geometry" />
        </mxCell>
        <mxCell id="0CFdpE0hCqeCpiIAvZBW-15" value="X" style="text;html=1;whiteSpace=wrap;strokeColor=none;fillColor=none;align=center;verticalAlign=middle;rounded=0;fontSize=194;fontColor=#FF0000;" vertex="1" parent="1">
          <mxGeometry x="50" y="240" width="60" height="30" as="geometry" />
        </mxCell>
      </root>
    </mxGraphModel>
  </diagram>
</mxfile>
